<svg width="375" height="812" viewBox="0 0 375 812" xmlns="http://www.w3.org/2000/svg">
  <!-- Phone frame -->
  <rect x="0" y="0" width="375" height="812" rx="40" ry="40" fill="#1a1a1a"/>
  <rect x="10" y="10" width="355" height="792" rx="35" ry="35" fill="#000"/>
  
  <!-- Status bar -->
  <rect x="20" y="20" width="335" height="44" fill="transparent"/>
  <text x="30" y="40" fill="white" font-family="Arial" font-size="14" font-weight="bold">9:41</text>
  <text x="320" y="40" fill="white" font-family="Arial" font-size="12">100%</text>
  
  <!-- App header -->
  <rect x="20" y="80" width="335" height="80" fill="linear-gradient(135deg, #667eea 0%, #764ba2 100%)"/>
  <text x="30" y="110" fill="white" font-family="Arial" font-size="24" font-weight="bold">DateGenie</text>
  <text x="30" y="135" fill="white" font-family="Arial" font-size="14" opacity="0.8">Scratch to Reveal</text>
  
  <!-- Scratch card area -->
  <rect x="30" y="200" width="315" height="300" rx="20" fill="#f8fafc"/>
  
  <!-- Scratch card -->
  <rect x="40" y="220" width="295" height="200" rx="15" fill="linear-gradient(45deg, #ffd700, #ffed4e)"/>
  <text x="187" y="320" fill="rgba(0,0,0,0.3)" font-family="Arial" font-size="14" text-anchor="middle">Scratch Here</text>
  
  <!-- Scratch effect overlay -->
  <rect x="60" y="240" width="255" height="160" rx="10" fill="rgba(255,255,255,0.1)"/>
  
  <!-- Revealed content -->
  <rect x="40" y="220" width="295" height="200" rx="15" fill="white" opacity="0.9"/>
  <text x="187" y="280" fill="#1a202c" font-family="Arial" font-size="18" font-weight="bold" text-anchor="middle">Romantic Picnic</text>
  <text x="187" y="305" fill="#1a202c" font-family="Arial" font-size="14" text-anchor="middle">in the Park</text>
  <text x="187" y="340" fill="#667eea" font-family="Arial" font-size="12" text-anchor="middle">Pack a basket with your favorite</text>
  <text x="187" y="355" fill="#667eea" font-family="Arial" font-size="12" text-anchor="middle">foods and find a quiet spot</text>
  <text x="187" y="370" fill="#667eea" font-family="Arial" font-size="12" text-anchor="middle">under the trees</text>
  
  <!-- Action buttons -->
  <rect x="50" y="450" width="120" height="50" rx="25" fill="#667eea"/>
  <text x="110" y="480" fill="white" font-family="Arial" font-size="14" font-weight="bold" text-anchor="middle">❤️ Save</text>
  
  <rect x="205" y="450" width="120" height="50" rx="25" fill="#4ecdc4"/>
  <text x="265" y="480" fill="white" font-family="Arial" font-size="14" font-weight="bold" text-anchor="middle">📤 Share</text>
  
  <!-- Another card preview -->
  <rect x="30" y="530" width="315" height="80" rx="15" fill="#f8fafc"/>
  <rect x="40" y="540" width="60" height="60" rx="10" fill="linear-gradient(45deg, #ffd700, #ffed4e)"/>
  <text x="70" y="570" fill="rgba(0,0,0,0.3)" font-family="Arial" font-size="10" text-anchor="middle">Scratch</text>
  
  <text x="120" y="560" fill="#1a202c" font-family="Arial" font-size="14" font-weight="bold">Cooking Class</text>
  <text x="120" y="580" fill="#667eea" font-family="Arial" font-size="12">Learn to make pasta together</text>
  <text x="120" y="595" fill="#667eea" font-family="Arial" font-size="12">at a local cooking school</text>
  
  <!-- Bottom navigation -->
  <rect x="0" y="750" width="375" height="62" fill="#1a1a1a"/>
  <circle cx="75" cy="781" r="20" fill="transparent" stroke="#666" stroke-width="2"/>
  <text x="75" y="785" fill="#666" font-family="Arial" font-size="12" text-anchor="middle">Home</text>
  
  <circle cx="187" cy="781" r="20" fill="#667eea"/>
  <text x="187" y="785" fill="white" font-family="Arial" font-size="12" text-anchor="middle">Scratch</text>
  
  <circle cx="300" cy="781" r="20" fill="transparent" stroke="#666" stroke-width="2"/>
  <text x="300" y="785" fill="#666" font-family="Arial" font-size="12" text-anchor="middle">Favorites</text>
</svg>
