<svg width="375" height="812" viewBox="0 0 375 812" xmlns="http://www.w3.org/2000/svg">
  <!-- Phone frame -->
  <rect x="0" y="0" width="375" height="812" rx="40" ry="40" fill="#1a1a1a"/>
  <rect x="10" y="10" width="355" height="792" rx="35" ry="35" fill="#000"/>
  
  <!-- Status bar -->
  <rect x="20" y="20" width="335" height="44" fill="transparent"/>
  <text x="30" y="40" fill="white" font-family="Arial" font-size="14" font-weight="bold">9:41</text>
  <text x="320" y="40" fill="white" font-family="Arial" font-size="12">100%</text>
  
  <!-- App header -->
  <rect x="20" y="80" width="335" height="80" fill="linear-gradient(135deg, #667eea 0%, #764ba2 100%)"/>
  <text x="30" y="110" fill="white" font-family="Arial" font-size="24" font-weight="bold">DateGenie</text>
  <text x="30" y="135" fill="white" font-family="Arial" font-size="14" opacity="0.8">Your Personal Date Planning Genie</text>
  
  <!-- Categories section -->
  <rect x="20" y="180" width="335" height="200" fill="#f8fafc"/>
  <text x="30" y="210" fill="#1a202c" font-family="Arial" font-size="18" font-weight="bold">Browse Categories</text>
  
  <!-- Category buttons -->
  <rect x="30" y="230" width="100" height="40" rx="20" fill="#667eea"/>
  <text x="50" y="250" fill="white" font-family="Arial" font-size="12" text-anchor="middle">Romantic</text>
  
  <rect x="140" y="230" width="100" height="40" rx="20" fill="#764ba2"/>
  <text x="160" y="250" fill="white" font-family="Arial" font-size="12" text-anchor="middle">Adventure</text>
  
  <rect x="250" y="230" width="100" height="40" rx="20" fill="#ffd700"/>
  <text x="270" y="250" fill="black" font-family="Arial" font-size="12" text-anchor="middle">Food</text>
  
  <rect x="30" y="280" width="100" height="40" rx="20" fill="#ff6b6b"/>
  <text x="50" y="300" fill="white" font-family="Arial" font-size="12" text-anchor="middle">Cozy</text>
  
  <rect x="140" y="280" width="100" height="40" rx="20" fill="#4ecdc4"/>
  <text x="160" y="300" fill="white" font-family="Arial" font-size="12" text-anchor="middle">Active</text>
  
  <rect x="250" y="280" width="100" height="40" rx="20" fill="#45b7d1"/>
  <text x="270" y="300" fill="white" font-family="Arial" font-size="12" text-anchor="middle">Budget</text>
  
  <!-- Genie Pick button -->
  <rect x="30" y="350" width="315" height="60" rx="30" fill="linear-gradient(135deg, #667eea 0%, #764ba2 100%)"/>
  <text x="187" y="385" fill="white" font-family="Arial" font-size="16" font-weight="bold" text-anchor="middle">🎲 Let the Genie Pick</text>
  
  <!-- Bottom navigation -->
  <rect x="0" y="750" width="375" height="62" fill="#1a1a1a"/>
  <circle cx="75" cy="781" r="20" fill="#667eea"/>
  <text x="75" y="785" fill="white" font-family="Arial" font-size="12" text-anchor="middle">Home</text>
  
  <circle cx="187" cy="781" r="20" fill="transparent" stroke="#666" stroke-width="2"/>
  <text x="187" y="785" fill="#666" font-family="Arial" font-size="12" text-anchor="middle">Browse</text>
  
  <circle cx="300" cy="781" r="20" fill="transparent" stroke="#666" stroke-width="2"/>
  <text x="300" y="785" fill="#666" font-family="Arial" font-size="12" text-anchor="middle">Favorites</text>
</svg>
